<svg xmlns="http://www.w3.org/2000/svg" viewBox="0 0 320 150" role="img" aria-label="회색 경차">
<defs><linearGradient id="g" x1="0" x2="1"><stop offset="0" stop-color="#858f9b"/><stop offset=".55" stop-color="#d1d5db"/><stop offset="1" stop-color="#6b7280"/></linearGradient><filter id="s" x="-20%" y="-20%" width="140%" height="140%"><feDropShadow dx="0" dy="7" stdDeviation="7" flood-color="#0f172a" flood-opacity=".18"/></filter></defs>
<ellipse cx="160" cy="132" rx="112" ry="12" fill="#d9e2ec" opacity=".85"/>
<g filter="url(#s)">
<path d="M51 91 C61 64 89 49 126 45 L190 45 C224 49 250 65 267 91 C279 94 286 102 283 112 L39 112 C36 102 40 95 51 91Z" fill="url(#g)"/>
<path d="M96 70 C111 53 135 48 160 49 C190 49 213 57 232 76 L92 76 Z" fill="#eef2f7" opacity=".96"/>
<path d="M101 72 C116 56 137 52 157 52 L155 76 L96 76 Z" fill="#b8c2cc" opacity=".9"/>
<path d="M164 52 C190 53 209 60 225 76 L164 76 Z" fill="#cbd5e1" opacity=".95"/>
<circle cx="93" cy="113" r="23" fill="#111827"/><circle cx="93" cy="113" r="11" fill="#e5e7eb"/><circle cx="236" cy="113" r="23" fill="#111827"/><circle cx="236" cy="113" r="11" fill="#e5e7eb"/>
<path d="M270 88 C282 93 287 99 284 107 L264 104 Z" fill="#ef4444"/><path d="M42 93 L57 90 L55 100 L37 103 Z" fill="#f8fafc" opacity=".9"/>
</g></svg>