<svg xmlns="http://www.w3.org/2000/svg" viewBox="0 0 360 150" role="img" aria-label="토요타 프리우스 4세대 쥐색">
<defs><linearGradient id="g" x1="0" x2="1"><stop offset="0" stop-color="#29313b"/><stop offset=".55" stop-color="#5b6570"/><stop offset="1" stop-color="#252b32"/></linearGradient><filter id="s" x="-20%" y="-20%" width="140%" height="140%"><feDropShadow dx="0" dy="7" stdDeviation="7" flood-color="#0f172a" flood-opacity=".22"/></filter></defs>
<ellipse cx="180" cy="132" rx="145" ry="13" fill="#d9e2ec" opacity=".85"/>
<g filter="url(#s)">
<path d="M43 92 C62 58 102 44 151 40 C201 36 252 49 307 77 C324 85 331 97 325 110 L42 110 C36 104 37 98 43 92Z" fill="url(#g)"/>
<path d="M92 72 C116 49 151 43 193 47 C223 50 249 61 270 77 L94 77 Z" fill="#cfd8e3" opacity=".96"/>
<path d="M99 73 C122 53 154 49 184 51 L180 77 L98 77 Z" fill="#9aa9b8" opacity=".9"/>
<path d="M190 51 C222 55 245 63 263 77 L188 77 Z" fill="#b7c3cf" opacity=".92"/>
<path d="M44 94 C111 103 221 100 323 91 C328 97 329 105 325 110 L42 110 C36 103 37 98 44 94Z" fill="#20262e" opacity=".45"/>
<circle cx="103" cy="112" r="24" fill="#111827"/><circle cx="103" cy="112" r="12" fill="#e5e7eb"/><circle cx="270" cy="112" r="24" fill="#111827"/><circle cx="270" cy="112" r="12" fill="#e5e7eb"/>
<path d="M314 83 C327 88 333 95 331 103 L306 100 Z" fill="#ef4444"/><path d="M42 93 L63 89 L59 99 L37 102 Z" fill="#f8fafc" opacity=".9"/>
</g></svg>